<mxfile host="Electron" modified="2023-04-07T23:28:17.046Z" agent="Mozilla/5.0 (X11; Linux x86_64) AppleWebKit/537.36 (KHTML, like Gecko) draw.io/21.1.2 Chrome/106.0.5249.199 Electron/21.4.3 Safari/537.36" etag="wHtyaw85PlaVWURoDDkg" version="21.1.2" type="device">
  <diagram name="Page-1" id="QGHJnzFmNNb13eaz8g9b">
    <mxGraphModel dx="1624" dy="1035" grid="1" gridSize="5" guides="1" tooltips="1" connect="1" arrows="1" fold="1" page="1" pageScale="1" pageWidth="827" pageHeight="1169" math="0" shadow="0">
      <root>
        <mxCell id="0" />
        <mxCell id="1" parent="0" />
        <mxCell id="tNql6HgSYyAwf7q5l8KF-78" value="" style="rounded=0;whiteSpace=wrap;html=1;fillColor=default;strokeColor=none;" vertex="1" parent="1">
          <mxGeometry x="120" y="730" width="160" height="50" as="geometry" />
        </mxCell>
        <mxCell id="tNql6HgSYyAwf7q5l8KF-77" value="" style="rounded=0;whiteSpace=wrap;html=1;fillColor=default;strokeColor=none;" vertex="1" parent="1">
          <mxGeometry x="460" y="545" width="160" height="40" as="geometry" />
        </mxCell>
        <mxCell id="ZziBK2h-JTC3dH9ngN35-2" value="" style="rounded=0;whiteSpace=wrap;html=1;fillColor=default;strokeColor=none;" parent="1" vertex="1">
          <mxGeometry x="120" y="375" width="160" height="50" as="geometry" />
        </mxCell>
        <mxCell id="E4Vg8wECrrCgOEomqvPJ-1" value="" style="rounded=0;whiteSpace=wrap;html=1;fillColor=default;strokeColor=none;" parent="1" vertex="1">
          <mxGeometry x="120" y="180" width="160" height="50" as="geometry" />
        </mxCell>
        <mxCell id="E4Vg8wECrrCgOEomqvPJ-2" value="" style="verticalLabelPosition=bottom;shadow=0;dashed=0;align=center;html=1;verticalAlign=top;shape=mxgraph.electrical.logic_gates.logic_gate;operation=and;strokeWidth=2;" parent="1" vertex="1">
          <mxGeometry x="125" y="385" width="50" height="30" as="geometry" />
        </mxCell>
        <mxCell id="E4Vg8wECrrCgOEomqvPJ-3" value="SN74" style="text;html=1;strokeColor=none;fillColor=none;align=left;verticalAlign=middle;whiteSpace=wrap;rounded=0;fontFamily=Noto Sans Mono;fontSize=18;fontStyle=0" parent="1" vertex="1">
          <mxGeometry x="180" y="190" width="90" height="15" as="geometry" />
        </mxCell>
        <mxCell id="E4Vg8wECrrCgOEomqvPJ-5" value="LS86ANE4" style="text;html=1;strokeColor=none;fillColor=none;align=left;verticalAlign=middle;whiteSpace=wrap;rounded=0;fontFamily=Noto Sans Mono;fontSize=18;fontStyle=0" parent="1" vertex="1">
          <mxGeometry x="180" y="205" width="90" height="15" as="geometry" />
        </mxCell>
        <mxCell id="ZziBK2h-JTC3dH9ngN35-1" value="" style="verticalLabelPosition=bottom;shadow=0;dashed=0;align=center;html=1;verticalAlign=top;shape=mxgraph.electrical.logic_gates.inverter_2;strokeWidth=2;" parent="1" vertex="1">
          <mxGeometry x="125" y="190" width="50" height="30" as="geometry" />
        </mxCell>
        <mxCell id="ZziBK2h-JTC3dH9ngN35-3" value="SN74" style="text;html=1;strokeColor=none;fillColor=none;align=left;verticalAlign=middle;whiteSpace=wrap;rounded=0;fontFamily=Noto Sans Mono;fontSize=18;fontStyle=0" parent="1" vertex="1">
          <mxGeometry x="180" y="385" width="90" height="15" as="geometry" />
        </mxCell>
        <mxCell id="ZziBK2h-JTC3dH9ngN35-4" value="LS09N" style="text;html=1;strokeColor=none;fillColor=none;align=left;verticalAlign=middle;whiteSpace=wrap;rounded=0;fontFamily=Noto Sans Mono;fontSize=18;fontStyle=0" parent="1" vertex="1">
          <mxGeometry x="180" y="400" width="90" height="15" as="geometry" />
        </mxCell>
        <mxCell id="ZziBK2h-JTC3dH9ngN35-6" value="" style="rounded=0;whiteSpace=wrap;html=1;fillColor=default;strokeColor=none;" parent="1" vertex="1">
          <mxGeometry x="120" y="255" width="160" height="50" as="geometry" />
        </mxCell>
        <mxCell id="ZziBK2h-JTC3dH9ngN35-7" value="SN74" style="text;html=1;strokeColor=none;fillColor=none;align=left;verticalAlign=middle;whiteSpace=wrap;rounded=0;fontFamily=Noto Sans Mono;fontSize=18;fontStyle=0" parent="1" vertex="1">
          <mxGeometry x="180" y="265" width="90" height="15" as="geometry" />
        </mxCell>
        <mxCell id="ZziBK2h-JTC3dH9ngN35-8" value="**32N" style="text;html=1;strokeColor=none;fillColor=none;align=left;verticalAlign=middle;whiteSpace=wrap;rounded=0;fontFamily=Noto Sans Mono;fontSize=18;fontStyle=0" parent="1" vertex="1">
          <mxGeometry x="180" y="280" width="90" height="15" as="geometry" />
        </mxCell>
        <mxCell id="ZziBK2h-JTC3dH9ngN35-10" value="" style="verticalLabelPosition=bottom;shadow=0;dashed=0;align=center;html=1;verticalAlign=top;shape=mxgraph.electrical.logic_gates.logic_gate;operation=or;strokeWidth=2;" parent="1" vertex="1">
          <mxGeometry x="125" y="265" width="50" height="30" as="geometry" />
        </mxCell>
        <mxCell id="ZziBK2h-JTC3dH9ngN35-11" value="" style="rounded=0;whiteSpace=wrap;html=1;fillColor=default;strokeColor=none;" parent="1" vertex="1">
          <mxGeometry x="120" y="315" width="160" height="50" as="geometry" />
        </mxCell>
        <mxCell id="ZziBK2h-JTC3dH9ngN35-12" value="CD74" style="text;html=1;strokeColor=none;fillColor=none;align=left;verticalAlign=middle;whiteSpace=wrap;rounded=0;fontFamily=Noto Sans Mono;fontSize=18;fontStyle=0" parent="1" vertex="1">
          <mxGeometry x="180" y="325" width="90" height="15" as="geometry" />
        </mxCell>
        <mxCell id="ZziBK2h-JTC3dH9ngN35-13" value="HC4075E" style="text;html=1;strokeColor=none;fillColor=none;align=left;verticalAlign=middle;whiteSpace=wrap;rounded=0;fontFamily=Noto Sans Mono;fontSize=18;fontStyle=0" parent="1" vertex="1">
          <mxGeometry x="180" y="340" width="90" height="15" as="geometry" />
        </mxCell>
        <mxCell id="ZziBK2h-JTC3dH9ngN35-14" value="" style="verticalLabelPosition=bottom;shadow=0;dashed=0;align=center;html=1;verticalAlign=top;shape=mxgraph.electrical.logic_gates.logic_gate;operation=or;strokeWidth=2;numInputs=3;" parent="1" vertex="1">
          <mxGeometry x="125" y="325" width="50" height="30" as="geometry" />
        </mxCell>
        <mxCell id="ZziBK2h-JTC3dH9ngN35-15" value="" style="rounded=0;whiteSpace=wrap;html=1;fillColor=default;strokeColor=none;" parent="1" vertex="1">
          <mxGeometry x="120" y="435" width="160" height="50" as="geometry" />
        </mxCell>
        <mxCell id="ZziBK2h-JTC3dH9ngN35-16" value="" style="verticalLabelPosition=bottom;shadow=0;dashed=0;align=center;html=1;verticalAlign=top;shape=mxgraph.electrical.logic_gates.logic_gate;operation=and;strokeWidth=2;numInputs=4;" parent="1" vertex="1">
          <mxGeometry x="125" y="445" width="50" height="30" as="geometry" />
        </mxCell>
        <mxCell id="ZziBK2h-JTC3dH9ngN35-17" value="SN74" style="text;html=1;strokeColor=none;fillColor=none;align=left;verticalAlign=middle;whiteSpace=wrap;rounded=0;fontFamily=Noto Sans Mono;fontSize=18;fontStyle=0" parent="1" vertex="1">
          <mxGeometry x="180" y="445" width="90" height="15" as="geometry" />
        </mxCell>
        <mxCell id="ZziBK2h-JTC3dH9ngN35-18" value="HC21N" style="text;html=1;strokeColor=none;fillColor=none;align=left;verticalAlign=middle;whiteSpace=wrap;rounded=0;fontFamily=Noto Sans Mono;fontSize=18;fontStyle=0" parent="1" vertex="1">
          <mxGeometry x="180" y="460" width="90" height="15" as="geometry" />
        </mxCell>
        <mxCell id="ZziBK2h-JTC3dH9ngN35-23" value="" style="rounded=0;whiteSpace=wrap;html=1;fillColor=default;strokeColor=none;" parent="1" vertex="1">
          <mxGeometry x="120" y="495" width="160" height="50" as="geometry" />
        </mxCell>
        <mxCell id="ZziBK2h-JTC3dH9ngN35-25" value="SN74" style="text;html=1;strokeColor=none;fillColor=none;align=left;verticalAlign=middle;whiteSpace=wrap;rounded=0;fontFamily=Noto Sans Mono;fontSize=18;fontStyle=0" parent="1" vertex="1">
          <mxGeometry x="180" y="505" width="90" height="15" as="geometry" />
        </mxCell>
        <mxCell id="ZziBK2h-JTC3dH9ngN35-26" value="LS86ANE4" style="text;html=1;strokeColor=none;fillColor=none;align=left;verticalAlign=middle;whiteSpace=wrap;rounded=0;fontFamily=Noto Sans Mono;fontSize=18;fontStyle=0" parent="1" vertex="1">
          <mxGeometry x="180" y="520" width="90" height="15" as="geometry" />
        </mxCell>
        <mxCell id="ZziBK2h-JTC3dH9ngN35-27" value="" style="verticalLabelPosition=bottom;shadow=0;dashed=0;align=center;html=1;verticalAlign=top;shape=mxgraph.electrical.logic_gates.logic_gate;operation=xor;strokeWidth=2;comic=0;enumerate=0;treeMoving=0;treeFolding=0;resizeHeight=0;collapsible=0;fixDash=0;snapToPoint=0;portConstraintRotation=0;labelPadding=0;" parent="1" vertex="1">
          <mxGeometry x="125" y="505" width="50" height="30" as="geometry" />
        </mxCell>
        <mxCell id="ZziBK2h-JTC3dH9ngN35-32" value="" style="rounded=0;whiteSpace=wrap;html=1;fillColor=default;strokeColor=none;" parent="1" vertex="1">
          <mxGeometry x="120" y="555" width="160" height="50" as="geometry" />
        </mxCell>
        <mxCell id="ZziBK2h-JTC3dH9ngN35-33" value="SN74" style="text;html=1;strokeColor=none;fillColor=none;align=left;verticalAlign=middle;whiteSpace=wrap;rounded=0;fontFamily=Noto Sans Mono;fontSize=18;fontStyle=0" parent="1" vertex="1">
          <mxGeometry x="180" y="565" width="90" height="15" as="geometry" />
        </mxCell>
        <mxCell id="ZziBK2h-JTC3dH9ngN35-34" value="HC377NE4" style="text;html=1;strokeColor=none;fillColor=none;align=left;verticalAlign=middle;whiteSpace=wrap;rounded=0;fontFamily=Noto Sans Mono;fontSize=18;fontStyle=0" parent="1" vertex="1">
          <mxGeometry x="180" y="580" width="90" height="15" as="geometry" />
        </mxCell>
        <mxCell id="ZziBK2h-JTC3dH9ngN35-39" value="" style="rounded=0;whiteSpace=wrap;html=1;strokeWidth=2;" parent="1" vertex="1">
          <mxGeometry x="135" y="565" width="30" height="30" as="geometry" />
        </mxCell>
        <mxCell id="ZziBK2h-JTC3dH9ngN35-40" value="" style="triangle;whiteSpace=wrap;html=1;strokeWidth=2;" parent="1" vertex="1">
          <mxGeometry x="135" y="583.5" width="6" height="8" as="geometry" />
        </mxCell>
        <mxCell id="ZziBK2h-JTC3dH9ngN35-42" value="" style="endArrow=none;html=1;rounded=0;strokeWidth=2;" parent="1" edge="1">
          <mxGeometry width="50" height="50" relative="1" as="geometry">
            <mxPoint x="125" y="572.44" as="sourcePoint" />
            <mxPoint x="135" y="572.44" as="targetPoint" />
          </mxGeometry>
        </mxCell>
        <mxCell id="ZziBK2h-JTC3dH9ngN35-44" value="" style="endArrow=none;html=1;rounded=0;strokeWidth=2;" parent="1" edge="1">
          <mxGeometry width="50" height="50" relative="1" as="geometry">
            <mxPoint x="165" y="587.4399999999999" as="sourcePoint" />
            <mxPoint x="175" y="587.4399999999999" as="targetPoint" />
          </mxGeometry>
        </mxCell>
        <mxCell id="ZziBK2h-JTC3dH9ngN35-46" value="" style="endArrow=none;html=1;rounded=0;strokeWidth=2;" parent="1" edge="1">
          <mxGeometry width="50" height="50" relative="1" as="geometry">
            <mxPoint x="125" y="587.44" as="sourcePoint" />
            <mxPoint x="135" y="587.44" as="targetPoint" />
          </mxGeometry>
        </mxCell>
        <mxCell id="ZziBK2h-JTC3dH9ngN35-47" value="" style="endArrow=none;html=1;rounded=0;strokeWidth=2;" parent="1" edge="1">
          <mxGeometry width="50" height="50" relative="1" as="geometry">
            <mxPoint x="165" y="572.44" as="sourcePoint" />
            <mxPoint x="175" y="572.44" as="targetPoint" />
          </mxGeometry>
        </mxCell>
        <mxCell id="ZziBK2h-JTC3dH9ngN35-48" value="" style="rounded=0;whiteSpace=wrap;html=1;fillColor=default;strokeColor=none;" parent="1" vertex="1">
          <mxGeometry x="120" y="615" width="160" height="50" as="geometry" />
        </mxCell>
        <mxCell id="ZziBK2h-JTC3dH9ngN35-49" value="SN74" style="text;html=1;strokeColor=none;fillColor=none;align=left;verticalAlign=middle;whiteSpace=wrap;rounded=0;fontFamily=Noto Sans Mono;fontSize=18;fontStyle=0" parent="1" vertex="1">
          <mxGeometry x="180" y="625" width="90" height="15" as="geometry" />
        </mxCell>
        <mxCell id="ZziBK2h-JTC3dH9ngN35-50" value="AHC541N" style="text;html=1;strokeColor=none;fillColor=none;align=left;verticalAlign=middle;whiteSpace=wrap;rounded=0;fontFamily=Noto Sans Mono;fontSize=18;fontStyle=0" parent="1" vertex="1">
          <mxGeometry x="180" y="640" width="90" height="15" as="geometry" />
        </mxCell>
        <mxCell id="ZziBK2h-JTC3dH9ngN35-52" value="" style="verticalLabelPosition=bottom;shadow=0;dashed=0;align=center;html=1;verticalAlign=top;shape=mxgraph.electrical.logic_gates.buffer2;strokeWidth=2;" parent="1" vertex="1">
          <mxGeometry x="125" y="625" width="50" height="30" as="geometry" />
        </mxCell>
        <mxCell id="ZziBK2h-JTC3dH9ngN35-54" value="7164" style="text;html=1;strokeColor=none;fillColor=none;align=left;verticalAlign=middle;whiteSpace=wrap;rounded=0;fontFamily=Noto Sans Mono;fontSize=18;fontStyle=0" parent="1" vertex="1">
          <mxGeometry x="180" y="740" width="90" height="15" as="geometry" />
        </mxCell>
        <mxCell id="ZziBK2h-JTC3dH9ngN35-55" value="S20TPGI" style="text;html=1;strokeColor=none;fillColor=none;align=left;verticalAlign=middle;whiteSpace=wrap;rounded=0;fontFamily=Noto Sans Mono;fontSize=18;fontStyle=0" parent="1" vertex="1">
          <mxGeometry x="180" y="755" width="90" height="15" as="geometry" />
        </mxCell>
        <mxCell id="ZziBK2h-JTC3dH9ngN35-57" value="" style="rounded=0;whiteSpace=wrap;html=1;strokeWidth=2;" parent="1" vertex="1">
          <mxGeometry x="125" y="740" width="50" height="30" as="geometry" />
        </mxCell>
        <mxCell id="ZziBK2h-JTC3dH9ngN35-58" value="S" style="text;html=1;strokeColor=none;fillColor=none;align=center;verticalAlign=middle;whiteSpace=wrap;rounded=0;fontFamily=Noto Sans Mono;fontSize=29;fontStyle=0" parent="1" vertex="1">
          <mxGeometry x="125" y="740" width="50" height="30" as="geometry" />
        </mxCell>
        <mxCell id="ZziBK2h-JTC3dH9ngN35-59" value="" style="rounded=0;whiteSpace=wrap;html=1;fillColor=default;strokeColor=none;" parent="1" vertex="1">
          <mxGeometry x="120" y="790" width="160" height="50" as="geometry" />
        </mxCell>
        <mxCell id="ZziBK2h-JTC3dH9ngN35-60" value="AT28C64B" style="text;html=1;strokeColor=none;fillColor=none;align=left;verticalAlign=middle;whiteSpace=wrap;rounded=0;fontFamily=Noto Sans Mono;fontSize=18;fontStyle=0" parent="1" vertex="1">
          <mxGeometry x="180" y="800" width="90" height="15" as="geometry" />
        </mxCell>
        <mxCell id="ZziBK2h-JTC3dH9ngN35-61" value="15PU" style="text;html=1;strokeColor=none;fillColor=none;align=left;verticalAlign=middle;whiteSpace=wrap;rounded=0;fontFamily=Noto Sans Mono;fontSize=18;fontStyle=0" parent="1" vertex="1">
          <mxGeometry x="180" y="815" width="90" height="15" as="geometry" />
        </mxCell>
        <mxCell id="ZziBK2h-JTC3dH9ngN35-62" value="" style="rounded=0;whiteSpace=wrap;html=1;strokeWidth=2;" parent="1" vertex="1">
          <mxGeometry x="125" y="800" width="50" height="30" as="geometry" />
        </mxCell>
        <mxCell id="ZziBK2h-JTC3dH9ngN35-63" value="E" style="text;html=1;strokeColor=none;fillColor=none;align=center;verticalAlign=middle;whiteSpace=wrap;rounded=0;fontFamily=Noto Sans Mono;fontSize=29;fontStyle=0" parent="1" vertex="1">
          <mxGeometry x="125" y="800" width="50" height="30" as="geometry" />
        </mxCell>
        <mxCell id="ZziBK2h-JTC3dH9ngN35-66" value="" style="rounded=0;whiteSpace=wrap;html=1;fillColor=default;strokeColor=none;" parent="1" vertex="1">
          <mxGeometry x="120" y="855" width="55" height="40" as="geometry" />
        </mxCell>
        <mxCell id="ZziBK2h-JTC3dH9ngN35-69" value="" style="rounded=0;whiteSpace=wrap;html=1;strokeWidth=2;" parent="1" vertex="1">
          <mxGeometry x="125" y="860" width="50" height="30" as="geometry" />
        </mxCell>
        <mxCell id="ZziBK2h-JTC3dH9ngN35-70" value="&lt;font style=&quot;font-size: 24px;&quot;&gt;555&lt;/font&gt;" style="text;html=1;strokeColor=none;fillColor=none;align=center;verticalAlign=middle;whiteSpace=wrap;rounded=0;fontFamily=Noto Sans Mono;fontSize=29;fontStyle=0" parent="1" vertex="1">
          <mxGeometry x="125" y="860" width="50" height="25" as="geometry" />
        </mxCell>
        <mxCell id="tNql6HgSYyAwf7q5l8KF-1" value="" style="rounded=0;whiteSpace=wrap;html=1;fillColor=default;strokeColor=none;" vertex="1" parent="1">
          <mxGeometry x="460" y="305" width="160" height="40" as="geometry" />
        </mxCell>
        <mxCell id="tNql6HgSYyAwf7q5l8KF-2" value="" style="rounded=0;whiteSpace=wrap;html=1;fillColor=default;strokeColor=none;" vertex="1" parent="1">
          <mxGeometry x="460" y="185" width="160" height="40" as="geometry" />
        </mxCell>
        <mxCell id="tNql6HgSYyAwf7q5l8KF-3" value="" style="verticalLabelPosition=bottom;shadow=0;dashed=0;align=center;html=1;verticalAlign=top;shape=mxgraph.electrical.logic_gates.logic_gate;operation=and;strokeWidth=2;" vertex="1" parent="1">
          <mxGeometry x="465" y="310" width="50" height="30" as="geometry" />
        </mxCell>
        <mxCell id="tNql6HgSYyAwf7q5l8KF-4" value="SN74" style="text;html=1;strokeColor=none;fillColor=none;align=left;verticalAlign=middle;whiteSpace=wrap;rounded=0;fontFamily=Noto Sans Mono;fontSize=18;fontStyle=0" vertex="1" parent="1">
          <mxGeometry x="520" y="190" width="90" height="15" as="geometry" />
        </mxCell>
        <mxCell id="tNql6HgSYyAwf7q5l8KF-5" value="LS86ANE4" style="text;html=1;strokeColor=none;fillColor=none;align=left;verticalAlign=middle;whiteSpace=wrap;rounded=0;fontFamily=Noto Sans Mono;fontSize=18;fontStyle=0" vertex="1" parent="1">
          <mxGeometry x="520" y="205" width="90" height="15" as="geometry" />
        </mxCell>
        <mxCell id="tNql6HgSYyAwf7q5l8KF-6" value="" style="verticalLabelPosition=bottom;shadow=0;dashed=0;align=center;html=1;verticalAlign=top;shape=mxgraph.electrical.logic_gates.inverter_2;strokeWidth=2;" vertex="1" parent="1">
          <mxGeometry x="465" y="190" width="50" height="30" as="geometry" />
        </mxCell>
        <mxCell id="tNql6HgSYyAwf7q5l8KF-7" value="SN74" style="text;html=1;strokeColor=none;fillColor=none;align=left;verticalAlign=middle;whiteSpace=wrap;rounded=0;fontFamily=Noto Sans Mono;fontSize=18;fontStyle=0" vertex="1" parent="1">
          <mxGeometry x="520" y="310" width="90" height="15" as="geometry" />
        </mxCell>
        <mxCell id="tNql6HgSYyAwf7q5l8KF-8" value="LS09N" style="text;html=1;strokeColor=none;fillColor=none;align=left;verticalAlign=middle;whiteSpace=wrap;rounded=0;fontFamily=Noto Sans Mono;fontSize=18;fontStyle=0" vertex="1" parent="1">
          <mxGeometry x="520" y="325" width="90" height="15" as="geometry" />
        </mxCell>
        <mxCell id="tNql6HgSYyAwf7q5l8KF-9" value="" style="rounded=0;whiteSpace=wrap;html=1;fillColor=default;strokeColor=none;" vertex="1" parent="1">
          <mxGeometry x="460" y="225" width="160" height="40" as="geometry" />
        </mxCell>
        <mxCell id="tNql6HgSYyAwf7q5l8KF-10" value="SN74" style="text;html=1;strokeColor=none;fillColor=none;align=left;verticalAlign=middle;whiteSpace=wrap;rounded=0;fontFamily=Noto Sans Mono;fontSize=18;fontStyle=0" vertex="1" parent="1">
          <mxGeometry x="520" y="230" width="90" height="15" as="geometry" />
        </mxCell>
        <mxCell id="tNql6HgSYyAwf7q5l8KF-11" value="**32N" style="text;html=1;strokeColor=none;fillColor=none;align=left;verticalAlign=middle;whiteSpace=wrap;rounded=0;fontFamily=Noto Sans Mono;fontSize=18;fontStyle=0" vertex="1" parent="1">
          <mxGeometry x="520" y="245" width="90" height="15" as="geometry" />
        </mxCell>
        <mxCell id="tNql6HgSYyAwf7q5l8KF-12" value="" style="verticalLabelPosition=bottom;shadow=0;dashed=0;align=center;html=1;verticalAlign=top;shape=mxgraph.electrical.logic_gates.logic_gate;operation=or;strokeWidth=2;" vertex="1" parent="1">
          <mxGeometry x="465" y="230" width="50" height="30" as="geometry" />
        </mxCell>
        <mxCell id="tNql6HgSYyAwf7q5l8KF-13" value="" style="rounded=0;whiteSpace=wrap;html=1;fillColor=default;strokeColor=none;" vertex="1" parent="1">
          <mxGeometry x="460" y="265" width="160" height="40" as="geometry" />
        </mxCell>
        <mxCell id="tNql6HgSYyAwf7q5l8KF-14" value="CD74" style="text;html=1;strokeColor=none;fillColor=none;align=left;verticalAlign=middle;whiteSpace=wrap;rounded=0;fontFamily=Noto Sans Mono;fontSize=18;fontStyle=0" vertex="1" parent="1">
          <mxGeometry x="520" y="270" width="90" height="15" as="geometry" />
        </mxCell>
        <mxCell id="tNql6HgSYyAwf7q5l8KF-15" value="HC4075E" style="text;html=1;strokeColor=none;fillColor=none;align=left;verticalAlign=middle;whiteSpace=wrap;rounded=0;fontFamily=Noto Sans Mono;fontSize=18;fontStyle=0" vertex="1" parent="1">
          <mxGeometry x="520" y="285" width="90" height="15" as="geometry" />
        </mxCell>
        <mxCell id="tNql6HgSYyAwf7q5l8KF-16" value="" style="verticalLabelPosition=bottom;shadow=0;dashed=0;align=center;html=1;verticalAlign=top;shape=mxgraph.electrical.logic_gates.logic_gate;operation=or;strokeWidth=2;numInputs=3;" vertex="1" parent="1">
          <mxGeometry x="465" y="270" width="50" height="30" as="geometry" />
        </mxCell>
        <mxCell id="tNql6HgSYyAwf7q5l8KF-17" value="" style="rounded=0;whiteSpace=wrap;html=1;fillColor=default;strokeColor=none;" vertex="1" parent="1">
          <mxGeometry x="460" y="345" width="160" height="40" as="geometry" />
        </mxCell>
        <mxCell id="tNql6HgSYyAwf7q5l8KF-18" value="" style="verticalLabelPosition=bottom;shadow=0;dashed=0;align=center;html=1;verticalAlign=top;shape=mxgraph.electrical.logic_gates.logic_gate;operation=and;strokeWidth=2;numInputs=4;" vertex="1" parent="1">
          <mxGeometry x="465" y="350" width="50" height="30" as="geometry" />
        </mxCell>
        <mxCell id="tNql6HgSYyAwf7q5l8KF-19" value="SN74" style="text;html=1;strokeColor=none;fillColor=none;align=left;verticalAlign=middle;whiteSpace=wrap;rounded=0;fontFamily=Noto Sans Mono;fontSize=18;fontStyle=0" vertex="1" parent="1">
          <mxGeometry x="520" y="350" width="90" height="15" as="geometry" />
        </mxCell>
        <mxCell id="tNql6HgSYyAwf7q5l8KF-20" value="HC21N" style="text;html=1;strokeColor=none;fillColor=none;align=left;verticalAlign=middle;whiteSpace=wrap;rounded=0;fontFamily=Noto Sans Mono;fontSize=18;fontStyle=0" vertex="1" parent="1">
          <mxGeometry x="520" y="365" width="90" height="15" as="geometry" />
        </mxCell>
        <mxCell id="tNql6HgSYyAwf7q5l8KF-21" value="" style="rounded=0;whiteSpace=wrap;html=1;fillColor=default;strokeColor=none;" vertex="1" parent="1">
          <mxGeometry x="460" y="385" width="160" height="40" as="geometry" />
        </mxCell>
        <mxCell id="tNql6HgSYyAwf7q5l8KF-22" value="SN74" style="text;html=1;strokeColor=none;fillColor=none;align=left;verticalAlign=middle;whiteSpace=wrap;rounded=0;fontFamily=Noto Sans Mono;fontSize=18;fontStyle=0" vertex="1" parent="1">
          <mxGeometry x="520" y="390" width="90" height="15" as="geometry" />
        </mxCell>
        <mxCell id="tNql6HgSYyAwf7q5l8KF-23" value="LS86ANE4" style="text;html=1;strokeColor=none;fillColor=none;align=left;verticalAlign=middle;whiteSpace=wrap;rounded=0;fontFamily=Noto Sans Mono;fontSize=18;fontStyle=0" vertex="1" parent="1">
          <mxGeometry x="520" y="405" width="90" height="15" as="geometry" />
        </mxCell>
        <mxCell id="tNql6HgSYyAwf7q5l8KF-24" value="" style="verticalLabelPosition=bottom;shadow=0;dashed=0;align=center;html=1;verticalAlign=top;shape=mxgraph.electrical.logic_gates.logic_gate;operation=xor;strokeWidth=2;comic=0;enumerate=0;treeMoving=0;treeFolding=0;resizeHeight=0;collapsible=0;fixDash=0;snapToPoint=0;portConstraintRotation=0;labelPadding=0;" vertex="1" parent="1">
          <mxGeometry x="465" y="390" width="50" height="30" as="geometry" />
        </mxCell>
        <mxCell id="tNql6HgSYyAwf7q5l8KF-25" value="" style="rounded=0;whiteSpace=wrap;html=1;fillColor=default;strokeColor=none;" vertex="1" parent="1">
          <mxGeometry x="460" y="425" width="160" height="40" as="geometry" />
        </mxCell>
        <mxCell id="tNql6HgSYyAwf7q5l8KF-26" value="SN74" style="text;html=1;strokeColor=none;fillColor=none;align=left;verticalAlign=middle;whiteSpace=wrap;rounded=0;fontFamily=Noto Sans Mono;fontSize=18;fontStyle=0" vertex="1" parent="1">
          <mxGeometry x="520" y="430" width="90" height="15" as="geometry" />
        </mxCell>
        <mxCell id="tNql6HgSYyAwf7q5l8KF-27" value="HC377NE4" style="text;html=1;strokeColor=none;fillColor=none;align=left;verticalAlign=middle;whiteSpace=wrap;rounded=0;fontFamily=Noto Sans Mono;fontSize=18;fontStyle=0" vertex="1" parent="1">
          <mxGeometry x="520" y="445" width="90" height="15" as="geometry" />
        </mxCell>
        <mxCell id="tNql6HgSYyAwf7q5l8KF-28" value="" style="rounded=0;whiteSpace=wrap;html=1;strokeWidth=2;" vertex="1" parent="1">
          <mxGeometry x="475" y="430" width="30" height="30" as="geometry" />
        </mxCell>
        <mxCell id="tNql6HgSYyAwf7q5l8KF-29" value="" style="triangle;whiteSpace=wrap;html=1;strokeWidth=2;" vertex="1" parent="1">
          <mxGeometry x="475" y="448.5" width="6" height="8" as="geometry" />
        </mxCell>
        <mxCell id="tNql6HgSYyAwf7q5l8KF-30" value="" style="endArrow=none;html=1;rounded=0;strokeWidth=2;" edge="1" parent="1">
          <mxGeometry width="50" height="50" relative="1" as="geometry">
            <mxPoint x="465" y="437.44000000000005" as="sourcePoint" />
            <mxPoint x="475" y="437.44000000000005" as="targetPoint" />
          </mxGeometry>
        </mxCell>
        <mxCell id="tNql6HgSYyAwf7q5l8KF-31" value="" style="endArrow=none;html=1;rounded=0;strokeWidth=2;" edge="1" parent="1">
          <mxGeometry width="50" height="50" relative="1" as="geometry">
            <mxPoint x="505" y="452.43999999999994" as="sourcePoint" />
            <mxPoint x="515" y="452.43999999999994" as="targetPoint" />
          </mxGeometry>
        </mxCell>
        <mxCell id="tNql6HgSYyAwf7q5l8KF-32" value="" style="endArrow=none;html=1;rounded=0;strokeWidth=2;" edge="1" parent="1">
          <mxGeometry width="50" height="50" relative="1" as="geometry">
            <mxPoint x="465" y="452.44000000000005" as="sourcePoint" />
            <mxPoint x="475" y="452.44000000000005" as="targetPoint" />
          </mxGeometry>
        </mxCell>
        <mxCell id="tNql6HgSYyAwf7q5l8KF-33" value="" style="endArrow=none;html=1;rounded=0;strokeWidth=2;" edge="1" parent="1">
          <mxGeometry width="50" height="50" relative="1" as="geometry">
            <mxPoint x="505" y="437.44000000000005" as="sourcePoint" />
            <mxPoint x="515" y="437.44000000000005" as="targetPoint" />
          </mxGeometry>
        </mxCell>
        <mxCell id="tNql6HgSYyAwf7q5l8KF-34" value="" style="rounded=0;whiteSpace=wrap;html=1;fillColor=default;strokeColor=none;" vertex="1" parent="1">
          <mxGeometry x="460" y="465" width="160" height="40" as="geometry" />
        </mxCell>
        <mxCell id="tNql6HgSYyAwf7q5l8KF-35" value="SN74" style="text;html=1;strokeColor=none;fillColor=none;align=left;verticalAlign=middle;whiteSpace=wrap;rounded=0;fontFamily=Noto Sans Mono;fontSize=18;fontStyle=0" vertex="1" parent="1">
          <mxGeometry x="520" y="470" width="90" height="15" as="geometry" />
        </mxCell>
        <mxCell id="tNql6HgSYyAwf7q5l8KF-36" value="AHC541N" style="text;html=1;strokeColor=none;fillColor=none;align=left;verticalAlign=middle;whiteSpace=wrap;rounded=0;fontFamily=Noto Sans Mono;fontSize=18;fontStyle=0" vertex="1" parent="1">
          <mxGeometry x="520" y="485" width="90" height="15" as="geometry" />
        </mxCell>
        <mxCell id="tNql6HgSYyAwf7q5l8KF-37" value="" style="verticalLabelPosition=bottom;shadow=0;dashed=0;align=center;html=1;verticalAlign=top;shape=mxgraph.electrical.logic_gates.buffer2;strokeWidth=2;" vertex="1" parent="1">
          <mxGeometry x="465" y="470" width="50" height="30" as="geometry" />
        </mxCell>
        <mxCell id="tNql6HgSYyAwf7q5l8KF-39" value="7164" style="text;html=1;strokeColor=none;fillColor=none;align=left;verticalAlign=middle;whiteSpace=wrap;rounded=0;fontFamily=Noto Sans Mono;fontSize=18;fontStyle=0" vertex="1" parent="1">
          <mxGeometry x="520" y="550" width="90" height="15" as="geometry" />
        </mxCell>
        <mxCell id="tNql6HgSYyAwf7q5l8KF-40" value="S20TPGI" style="text;html=1;strokeColor=none;fillColor=none;align=left;verticalAlign=middle;whiteSpace=wrap;rounded=0;fontFamily=Noto Sans Mono;fontSize=18;fontStyle=0" vertex="1" parent="1">
          <mxGeometry x="520" y="565" width="90" height="15" as="geometry" />
        </mxCell>
        <mxCell id="tNql6HgSYyAwf7q5l8KF-41" value="" style="rounded=0;whiteSpace=wrap;html=1;strokeWidth=2;" vertex="1" parent="1">
          <mxGeometry x="465" y="550" width="50" height="30" as="geometry" />
        </mxCell>
        <mxCell id="tNql6HgSYyAwf7q5l8KF-42" value="S" style="text;html=1;strokeColor=none;fillColor=none;align=center;verticalAlign=middle;whiteSpace=wrap;rounded=0;fontFamily=Noto Sans Mono;fontSize=29;fontStyle=0" vertex="1" parent="1">
          <mxGeometry x="465" y="550" width="50" height="30" as="geometry" />
        </mxCell>
        <mxCell id="tNql6HgSYyAwf7q5l8KF-43" value="" style="rounded=0;whiteSpace=wrap;html=1;fillColor=default;strokeColor=none;" vertex="1" parent="1">
          <mxGeometry x="460" y="585" width="160" height="40" as="geometry" />
        </mxCell>
        <mxCell id="tNql6HgSYyAwf7q5l8KF-44" value="AT28C64B" style="text;html=1;strokeColor=none;fillColor=none;align=left;verticalAlign=middle;whiteSpace=wrap;rounded=0;fontFamily=Noto Sans Mono;fontSize=18;fontStyle=0" vertex="1" parent="1">
          <mxGeometry x="520" y="590" width="90" height="15" as="geometry" />
        </mxCell>
        <mxCell id="tNql6HgSYyAwf7q5l8KF-45" value="15PU" style="text;html=1;strokeColor=none;fillColor=none;align=left;verticalAlign=middle;whiteSpace=wrap;rounded=0;fontFamily=Noto Sans Mono;fontSize=18;fontStyle=0" vertex="1" parent="1">
          <mxGeometry x="520" y="605" width="90" height="15" as="geometry" />
        </mxCell>
        <mxCell id="tNql6HgSYyAwf7q5l8KF-46" value="" style="rounded=0;whiteSpace=wrap;html=1;strokeWidth=2;" vertex="1" parent="1">
          <mxGeometry x="465" y="590" width="50" height="30" as="geometry" />
        </mxCell>
        <mxCell id="tNql6HgSYyAwf7q5l8KF-47" value="E" style="text;html=1;strokeColor=none;fillColor=none;align=center;verticalAlign=middle;whiteSpace=wrap;rounded=0;fontFamily=Noto Sans Mono;fontSize=29;fontStyle=0" vertex="1" parent="1">
          <mxGeometry x="465" y="590" width="50" height="30" as="geometry" />
        </mxCell>
        <mxCell id="tNql6HgSYyAwf7q5l8KF-50" value="Integrated Circuit" style="rounded=0;whiteSpace=wrap;html=1;strokeColor=none;fontStyle=1;fillColor=#3D0917;fontSize=11;" vertex="1" parent="1">
          <mxGeometry x="460" y="165" width="160" height="20" as="geometry" />
        </mxCell>
        <mxCell id="tNql6HgSYyAwf7q5l8KF-51" value="Available" style="rounded=0;whiteSpace=wrap;html=1;strokeColor=none;fontStyle=1;fillColor=#3D0917;fontSize=11;" vertex="1" parent="1">
          <mxGeometry x="920" y="165" width="60" height="20" as="geometry" />
        </mxCell>
        <mxCell id="tNql6HgSYyAwf7q5l8KF-52" value="Embedded" style="rounded=0;whiteSpace=wrap;html=1;strokeColor=none;fontStyle=1;fillColor=#3D0917;fontSize=11;" vertex="1" parent="1">
          <mxGeometry x="640" y="165" width="60" height="20" as="geometry" />
        </mxCell>
        <mxCell id="tNql6HgSYyAwf7q5l8KF-53" value="6" style="rounded=0;whiteSpace=wrap;html=1;strokeColor=none;fontStyle=1;fillColor=#0D103D;fontSize=24;" vertex="1" parent="1">
          <mxGeometry x="920" y="185" width="60" height="40" as="geometry" />
        </mxCell>
        <mxCell id="tNql6HgSYyAwf7q5l8KF-54" value="" style="rounded=0;whiteSpace=wrap;html=1;fillColor=default;strokeColor=none;" vertex="1" parent="1">
          <mxGeometry x="460" y="505" width="160" height="40" as="geometry" />
        </mxCell>
        <mxCell id="tNql6HgSYyAwf7q5l8KF-55" value="SN74" style="text;html=1;strokeColor=none;fillColor=none;align=left;verticalAlign=middle;whiteSpace=wrap;rounded=0;fontFamily=Noto Sans Mono;fontSize=18;fontStyle=0" vertex="1" parent="1">
          <mxGeometry x="520" y="510" width="90" height="15" as="geometry" />
        </mxCell>
        <mxCell id="tNql6HgSYyAwf7q5l8KF-56" value="ABT241AN" style="text;html=1;strokeColor=none;fillColor=none;align=left;verticalAlign=middle;whiteSpace=wrap;rounded=0;fontFamily=Noto Sans Mono;fontSize=18;fontStyle=0" vertex="1" parent="1">
          <mxGeometry x="520" y="525" width="90" height="15" as="geometry" />
        </mxCell>
        <mxCell id="tNql6HgSYyAwf7q5l8KF-57" value="" style="verticalLabelPosition=bottom;shadow=0;dashed=0;align=center;html=1;verticalAlign=top;shape=mxgraph.electrical.logic_gates.buffer2;strokeWidth=2;" vertex="1" parent="1">
          <mxGeometry x="465" y="510" width="50" height="30" as="geometry" />
        </mxCell>
        <mxCell id="tNql6HgSYyAwf7q5l8KF-59" value="" style="triangle;whiteSpace=wrap;html=1;strokeWidth=2;" vertex="1" parent="1">
          <mxGeometry x="481" y="520" width="10" height="10" as="geometry" />
        </mxCell>
        <mxCell id="tNql6HgSYyAwf7q5l8KF-60" value="" style="rounded=0;whiteSpace=wrap;html=1;fillColor=default;strokeColor=none;" vertex="1" parent="1">
          <mxGeometry x="120" y="675" width="160" height="45" as="geometry" />
        </mxCell>
        <mxCell id="tNql6HgSYyAwf7q5l8KF-61" value="SN74" style="text;html=1;strokeColor=none;fillColor=none;align=left;verticalAlign=middle;whiteSpace=wrap;rounded=0;fontFamily=Noto Sans Mono;fontSize=18;fontStyle=0" vertex="1" parent="1">
          <mxGeometry x="180" y="682.5" width="90" height="15" as="geometry" />
        </mxCell>
        <mxCell id="tNql6HgSYyAwf7q5l8KF-62" value="ABT241AN" style="text;html=1;strokeColor=none;fillColor=none;align=left;verticalAlign=middle;whiteSpace=wrap;rounded=0;fontFamily=Noto Sans Mono;fontSize=18;fontStyle=0" vertex="1" parent="1">
          <mxGeometry x="180" y="697.5" width="90" height="15" as="geometry" />
        </mxCell>
        <mxCell id="tNql6HgSYyAwf7q5l8KF-63" value="" style="verticalLabelPosition=bottom;shadow=0;dashed=0;align=center;html=1;verticalAlign=top;shape=mxgraph.electrical.logic_gates.buffer2;strokeWidth=2;" vertex="1" parent="1">
          <mxGeometry x="125" y="682.5" width="50" height="30" as="geometry" />
        </mxCell>
        <mxCell id="tNql6HgSYyAwf7q5l8KF-64" value="" style="triangle;whiteSpace=wrap;html=1;strokeWidth=2;" vertex="1" parent="1">
          <mxGeometry x="141" y="692.5" width="10" height="10" as="geometry" />
        </mxCell>
        <mxCell id="tNql6HgSYyAwf7q5l8KF-65" value="31" style="rounded=0;whiteSpace=wrap;html=1;strokeColor=none;fontStyle=1;fillColor=#0D103D;fontSize=24;" vertex="1" parent="1">
          <mxGeometry x="920" y="225" width="60" height="40" as="geometry" />
        </mxCell>
        <mxCell id="tNql6HgSYyAwf7q5l8KF-66" value="18" style="rounded=0;whiteSpace=wrap;html=1;strokeColor=none;fontStyle=1;fillColor=#0D103D;fontSize=24;" vertex="1" parent="1">
          <mxGeometry x="920" y="265" width="60" height="40" as="geometry" />
        </mxCell>
        <mxCell id="tNql6HgSYyAwf7q5l8KF-68" value="61" style="rounded=0;whiteSpace=wrap;html=1;strokeColor=none;fontStyle=1;fillColor=#0D103D;fontSize=24;" vertex="1" parent="1">
          <mxGeometry x="920" y="305" width="60" height="40" as="geometry" />
        </mxCell>
        <mxCell id="tNql6HgSYyAwf7q5l8KF-69" value="21" style="rounded=0;whiteSpace=wrap;html=1;strokeColor=none;fontStyle=1;fillColor=#0D103D;fontSize=24;" vertex="1" parent="1">
          <mxGeometry x="920" y="345" width="60" height="40" as="geometry" />
        </mxCell>
        <mxCell id="tNql6HgSYyAwf7q5l8KF-70" value="11" style="rounded=0;whiteSpace=wrap;html=1;strokeColor=none;fontStyle=1;fillColor=#0D103D;fontSize=24;" vertex="1" parent="1">
          <mxGeometry x="920" y="385" width="60" height="40" as="geometry" />
        </mxCell>
        <mxCell id="tNql6HgSYyAwf7q5l8KF-71" value="42" style="rounded=0;whiteSpace=wrap;html=1;strokeColor=none;fontStyle=1;fillColor=#0D103D;fontSize=24;" vertex="1" parent="1">
          <mxGeometry x="920" y="425" width="60" height="40" as="geometry" />
        </mxCell>
        <mxCell id="tNql6HgSYyAwf7q5l8KF-72" value="11" style="rounded=0;whiteSpace=wrap;html=1;strokeColor=none;fontStyle=1;fillColor=#0D103D;fontSize=24;" vertex="1" parent="1">
          <mxGeometry x="920" y="465" width="60" height="40" as="geometry" />
        </mxCell>
        <mxCell id="tNql6HgSYyAwf7q5l8KF-73" value="19" style="rounded=0;whiteSpace=wrap;html=1;strokeColor=none;fontStyle=1;fillColor=#0D103D;fontSize=24;" vertex="1" parent="1">
          <mxGeometry x="920" y="505" width="60" height="40" as="geometry" />
        </mxCell>
        <mxCell id="tNql6HgSYyAwf7q5l8KF-75" value="1" style="rounded=0;whiteSpace=wrap;html=1;strokeColor=none;fontStyle=1;fillColor=#0D103D;fontSize=24;" vertex="1" parent="1">
          <mxGeometry x="920" y="585" width="60" height="40" as="geometry" />
        </mxCell>
        <mxCell id="tNql6HgSYyAwf7q5l8KF-76" value="1" style="rounded=0;whiteSpace=wrap;html=1;strokeColor=none;fontStyle=1;fillColor=#0D103D;fontSize=24;" vertex="1" parent="1">
          <mxGeometry x="920" y="545" width="60" height="40" as="geometry" />
        </mxCell>
        <mxCell id="tNql6HgSYyAwf7q5l8KF-81" value="Stats Raw" style="rounded=0;whiteSpace=wrap;html=1;strokeColor=none;fontStyle=1;fillColor=#3D0917;fontSize=11;" vertex="1" parent="1">
          <mxGeometry x="700" y="165" width="60" height="20" as="geometry" />
        </mxCell>
        <mxCell id="tNql6HgSYyAwf7q5l8KF-82" value="Required" style="rounded=0;whiteSpace=wrap;html=1;strokeColor=none;fontStyle=1;fillColor=#3D0917;fontSize=11;" vertex="1" parent="1">
          <mxGeometry x="980" y="165" width="60" height="20" as="geometry" />
        </mxCell>
        <mxCell id="tNql6HgSYyAwf7q5l8KF-83" value="0" style="rounded=0;whiteSpace=wrap;html=1;strokeColor=none;fontStyle=1;fillColor=#0E263D;fontSize=24;" vertex="1" parent="1">
          <mxGeometry x="640" y="185" width="60" height="40" as="geometry" />
        </mxCell>
        <mxCell id="tNql6HgSYyAwf7q5l8KF-84" value="0" style="rounded=0;whiteSpace=wrap;html=1;strokeColor=none;fontStyle=1;fillColor=#0E263D;fontSize=24;" vertex="1" parent="1">
          <mxGeometry x="640" y="225" width="60" height="40" as="geometry" />
        </mxCell>
        <mxCell id="tNql6HgSYyAwf7q5l8KF-86" value="0" style="rounded=0;whiteSpace=wrap;html=1;strokeColor=none;fontStyle=1;fillColor=#0E263D;fontSize=24;" vertex="1" parent="1">
          <mxGeometry x="640" y="265" width="60" height="40" as="geometry" />
        </mxCell>
        <mxCell id="tNql6HgSYyAwf7q5l8KF-87" value="53" style="rounded=0;whiteSpace=wrap;html=1;strokeColor=none;fontStyle=1;fillColor=#0E263D;fontSize=24;" vertex="1" parent="1">
          <mxGeometry x="640" y="305" width="60" height="40" as="geometry" />
        </mxCell>
        <mxCell id="tNql6HgSYyAwf7q5l8KF-88" value="0" style="rounded=0;whiteSpace=wrap;html=1;strokeColor=none;fontStyle=1;fillColor=#0E263D;fontSize=24;" vertex="1" parent="1">
          <mxGeometry x="640" y="345" width="60" height="40" as="geometry" />
        </mxCell>
        <mxCell id="tNql6HgSYyAwf7q5l8KF-89" value="0" style="rounded=0;whiteSpace=wrap;html=1;strokeColor=none;fontStyle=1;fillColor=#0E263D;fontSize=24;" vertex="1" parent="1">
          <mxGeometry x="640" y="385" width="60" height="40" as="geometry" />
        </mxCell>
        <mxCell id="tNql6HgSYyAwf7q5l8KF-90" value="0" style="rounded=0;whiteSpace=wrap;html=1;strokeColor=none;fontStyle=1;fillColor=#0E263D;fontSize=24;" vertex="1" parent="1">
          <mxGeometry x="640" y="425" width="60" height="40" as="geometry" />
        </mxCell>
        <mxCell id="tNql6HgSYyAwf7q5l8KF-91" value="0" style="rounded=0;whiteSpace=wrap;html=1;strokeColor=none;fontStyle=1;fillColor=#0E263D;fontSize=24;" vertex="1" parent="1">
          <mxGeometry x="640" y="465" width="60" height="40" as="geometry" />
        </mxCell>
        <mxCell id="tNql6HgSYyAwf7q5l8KF-92" value="0" style="rounded=0;whiteSpace=wrap;html=1;strokeColor=none;fontStyle=1;fillColor=#0E263D;fontSize=24;" vertex="1" parent="1">
          <mxGeometry x="640" y="505" width="60" height="40" as="geometry" />
        </mxCell>
        <mxCell id="tNql6HgSYyAwf7q5l8KF-93" value="0" style="rounded=0;whiteSpace=wrap;html=1;strokeColor=none;fontStyle=1;fillColor=#0E263D;fontSize=24;" vertex="1" parent="1">
          <mxGeometry x="640" y="545" width="60" height="40" as="geometry" />
        </mxCell>
        <mxCell id="tNql6HgSYyAwf7q5l8KF-94" value="0" style="rounded=0;whiteSpace=wrap;html=1;strokeColor=none;fontStyle=1;fillColor=#0E263D;fontSize=24;" vertex="1" parent="1">
          <mxGeometry x="640" y="585" width="60" height="40" as="geometry" />
        </mxCell>
        <mxCell id="tNql6HgSYyAwf7q5l8KF-95" value="Stats Real" style="rounded=0;whiteSpace=wrap;html=1;strokeColor=none;fontStyle=1;fillColor=#3D0917;fontSize=11;" vertex="1" parent="1">
          <mxGeometry x="760" y="165" width="60" height="20" as="geometry" />
        </mxCell>
        <mxCell id="tNql6HgSYyAwf7q5l8KF-96" value="Caution" style="rounded=0;whiteSpace=wrap;html=1;strokeColor=none;fontStyle=1;fillColor=#3D0917;fontSize=11;" vertex="1" parent="1">
          <mxGeometry x="840" y="165" width="60" height="20" as="geometry" />
        </mxCell>
        <mxCell id="tNql6HgSYyAwf7q5l8KF-107" value="3x NOT 1-1&lt;br&gt;1x AND 2-1" style="rounded=0;whiteSpace=wrap;html=1;strokeColor=none;fontStyle=0;fillColor=#3D290F;fontSize=10;align=left;" vertex="1" parent="1">
          <mxGeometry x="840" y="583.5" width="60" height="40" as="geometry" />
        </mxCell>
        <mxCell id="tNql6HgSYyAwf7q5l8KF-110" value="23" style="rounded=0;whiteSpace=wrap;html=1;strokeColor=none;fontStyle=1;fillColor=#0E263D;fontSize=24;" vertex="1" parent="1">
          <mxGeometry x="700" y="425" width="60" height="40" as="geometry" />
        </mxCell>
        <mxCell id="tNql6HgSYyAwf7q5l8KF-111" value="23" style="rounded=0;whiteSpace=wrap;html=1;strokeColor=none;fontStyle=1;fillColor=#0E263D;fontSize=24;" vertex="1" parent="1">
          <mxGeometry x="760" y="425" width="60" height="40" as="geometry" />
        </mxCell>
        <mxCell id="tNql6HgSYyAwf7q5l8KF-113" value="23" style="rounded=0;whiteSpace=wrap;html=1;strokeColor=none;fontStyle=1;fillColor=#0D103D;fontSize=24;" vertex="1" parent="1">
          <mxGeometry x="980" y="425" width="60" height="40" as="geometry" />
        </mxCell>
        <mxCell id="tNql6HgSYyAwf7q5l8KF-114" value="3" style="rounded=0;whiteSpace=wrap;html=1;strokeColor=none;fontStyle=1;fillColor=#0E263D;fontSize=24;" vertex="1" parent="1">
          <mxGeometry x="700" y="265" width="60" height="40" as="geometry" />
        </mxCell>
        <mxCell id="tNql6HgSYyAwf7q5l8KF-115" value="3" style="rounded=0;whiteSpace=wrap;html=1;strokeColor=none;fontStyle=1;fillColor=#0E263D;fontSize=24;" vertex="1" parent="1">
          <mxGeometry x="760" y="265" width="60" height="40" as="geometry" />
        </mxCell>
        <mxCell id="tNql6HgSYyAwf7q5l8KF-116" value="1" style="rounded=0;whiteSpace=wrap;html=1;strokeColor=none;fontStyle=1;fillColor=#0D103D;fontSize=24;" vertex="1" parent="1">
          <mxGeometry x="980" y="265" width="60" height="40" as="geometry" />
        </mxCell>
        <mxCell id="tNql6HgSYyAwf7q5l8KF-117" value="1" style="rounded=0;whiteSpace=wrap;html=1;strokeColor=none;fontStyle=1;fillColor=#0E263D;fontSize=24;" vertex="1" parent="1">
          <mxGeometry x="700" y="545" width="60" height="40" as="geometry" />
        </mxCell>
        <mxCell id="tNql6HgSYyAwf7q5l8KF-118" value="1" style="rounded=0;whiteSpace=wrap;html=1;strokeColor=none;fontStyle=1;fillColor=#0E263D;fontSize=24;" vertex="1" parent="1">
          <mxGeometry x="700" y="585" width="60" height="40" as="geometry" />
        </mxCell>
        <mxCell id="tNql6HgSYyAwf7q5l8KF-119" value="1" style="rounded=0;whiteSpace=wrap;html=1;strokeColor=none;fontStyle=1;fillColor=#0E263D;fontSize=24;" vertex="1" parent="1">
          <mxGeometry x="760" y="585" width="60" height="40" as="geometry" />
        </mxCell>
        <mxCell id="tNql6HgSYyAwf7q5l8KF-120" value="1" style="rounded=0;whiteSpace=wrap;html=1;strokeColor=none;fontStyle=1;fillColor=#0E263D;fontSize=24;" vertex="1" parent="1">
          <mxGeometry x="760" y="545" width="60" height="40" as="geometry" />
        </mxCell>
        <mxCell id="tNql6HgSYyAwf7q5l8KF-121" value="1" style="rounded=0;whiteSpace=wrap;html=1;strokeColor=none;fontStyle=1;fillColor=#0D103D;fontSize=24;" vertex="1" parent="1">
          <mxGeometry x="980" y="585" width="60" height="40" as="geometry" />
        </mxCell>
        <mxCell id="tNql6HgSYyAwf7q5l8KF-122" value="1" style="rounded=0;whiteSpace=wrap;html=1;strokeColor=none;fontStyle=1;fillColor=#0D103D;fontSize=24;" vertex="1" parent="1">
          <mxGeometry x="980" y="545" width="60" height="40" as="geometry" />
        </mxCell>
        <mxCell id="tNql6HgSYyAwf7q5l8KF-123" value="24" style="rounded=0;whiteSpace=wrap;html=1;strokeColor=none;fontStyle=1;fillColor=#0E263D;fontSize=24;" vertex="1" parent="1">
          <mxGeometry x="700" y="345" width="60" height="40" as="geometry" />
        </mxCell>
        <mxCell id="tNql6HgSYyAwf7q5l8KF-125" value="24" style="rounded=0;whiteSpace=wrap;html=1;strokeColor=none;fontStyle=1;fillColor=#0E263D;fontSize=24;" vertex="1" parent="1">
          <mxGeometry x="760" y="345" width="60" height="40" as="geometry" />
        </mxCell>
        <mxCell id="tNql6HgSYyAwf7q5l8KF-126" value="12" style="rounded=0;whiteSpace=wrap;html=1;strokeColor=none;fontStyle=1;fillColor=#0D103D;fontSize=24;" vertex="1" parent="1">
          <mxGeometry x="980" y="345" width="60" height="40" as="geometry" />
        </mxCell>
        <mxCell id="tNql6HgSYyAwf7q5l8KF-127" value="28" style="rounded=0;whiteSpace=wrap;html=1;strokeColor=none;fontStyle=1;fillColor=#0E263D;fontSize=24;" vertex="1" parent="1">
          <mxGeometry x="700" y="465" width="60" height="40" as="geometry" />
        </mxCell>
        <mxCell id="tNql6HgSYyAwf7q5l8KF-128" value="28" style="rounded=0;whiteSpace=wrap;html=1;strokeColor=none;fontStyle=1;fillColor=#0E263D;fontSize=24;" vertex="1" parent="1">
          <mxGeometry x="760" y="465" width="60" height="40" as="geometry" />
        </mxCell>
        <mxCell id="tNql6HgSYyAwf7q5l8KF-129" value="28" style="rounded=0;whiteSpace=wrap;html=1;strokeColor=none;fontStyle=1;fillColor=#0D103D;fontSize=24;" vertex="1" parent="1">
          <mxGeometry x="980" y="465" width="60" height="40" as="geometry" />
        </mxCell>
        <mxCell id="tNql6HgSYyAwf7q5l8KF-130" value="4" style="rounded=0;whiteSpace=wrap;html=1;strokeColor=none;fontStyle=1;fillColor=#0E263D;fontSize=24;" vertex="1" parent="1">
          <mxGeometry x="700" y="505" width="60" height="40" as="geometry" />
        </mxCell>
        <mxCell id="tNql6HgSYyAwf7q5l8KF-131" value="4" style="rounded=0;whiteSpace=wrap;html=1;strokeColor=none;fontStyle=1;fillColor=#0E263D;fontSize=24;" vertex="1" parent="1">
          <mxGeometry x="760" y="505" width="60" height="40" as="geometry" />
        </mxCell>
        <mxCell id="tNql6HgSYyAwf7q5l8KF-132" value="2" style="rounded=0;whiteSpace=wrap;html=1;strokeColor=none;fontStyle=1;fillColor=#0D103D;fontSize=24;" vertex="1" parent="1">
          <mxGeometry x="980" y="505" width="60" height="40" as="geometry" />
        </mxCell>
        <mxCell id="tNql6HgSYyAwf7q5l8KF-133" value="36" style="rounded=0;whiteSpace=wrap;html=1;strokeColor=none;fontStyle=1;fillColor=#0E263D;fontSize=24;" vertex="1" parent="1">
          <mxGeometry x="700" y="385" width="60" height="40" as="geometry" />
        </mxCell>
        <mxCell id="tNql6HgSYyAwf7q5l8KF-134" value="36" style="rounded=0;whiteSpace=wrap;html=1;strokeColor=none;fontStyle=1;fillColor=#0E263D;fontSize=24;" vertex="1" parent="1">
          <mxGeometry x="760" y="385" width="60" height="40" as="geometry" />
        </mxCell>
        <mxCell id="tNql6HgSYyAwf7q5l8KF-135" value="9" style="rounded=0;whiteSpace=wrap;html=1;strokeColor=none;fontStyle=1;fillColor=#0D103D;fontSize=24;" vertex="1" parent="1">
          <mxGeometry x="980" y="385" width="60" height="40" as="geometry" />
        </mxCell>
        <mxCell id="tNql6HgSYyAwf7q5l8KF-136" value="80" style="rounded=0;whiteSpace=wrap;html=1;strokeColor=none;fontStyle=1;fillColor=#0E263D;fontSize=24;" vertex="1" parent="1">
          <mxGeometry x="700" y="225" width="60" height="40" as="geometry" />
        </mxCell>
        <mxCell id="tNql6HgSYyAwf7q5l8KF-137" value="80" style="rounded=0;whiteSpace=wrap;html=1;strokeColor=none;fontStyle=1;fillColor=#0E263D;fontSize=24;" vertex="1" parent="1">
          <mxGeometry x="760" y="225" width="60" height="40" as="geometry" />
        </mxCell>
        <mxCell id="tNql6HgSYyAwf7q5l8KF-138" value="20" style="rounded=0;whiteSpace=wrap;html=1;strokeColor=none;fontStyle=1;fillColor=#0D103D;fontSize=24;" vertex="1" parent="1">
          <mxGeometry x="980" y="225" width="60" height="40" as="geometry" />
        </mxCell>
        <mxCell id="tNql6HgSYyAwf7q5l8KF-139" value="11" style="rounded=0;whiteSpace=wrap;html=1;strokeColor=none;fontStyle=1;fillColor=#0E263D;fontSize=24;" vertex="1" parent="1">
          <mxGeometry x="700" y="185" width="60" height="40" as="geometry" />
        </mxCell>
        <mxCell id="tNql6HgSYyAwf7q5l8KF-140" value="11" style="rounded=0;whiteSpace=wrap;html=1;strokeColor=none;fontStyle=1;fillColor=#0E263D;fontSize=24;" vertex="1" parent="1">
          <mxGeometry x="760" y="185" width="60" height="40" as="geometry" />
        </mxCell>
        <mxCell id="tNql6HgSYyAwf7q5l8KF-141" value="11" style="rounded=0;whiteSpace=wrap;html=1;strokeColor=none;fontStyle=1;fillColor=#0D103D;fontSize=24;" vertex="1" parent="1">
          <mxGeometry x="980" y="185" width="60" height="40" as="geometry" />
        </mxCell>
        <mxCell id="tNql6HgSYyAwf7q5l8KF-142" value="161" style="rounded=0;whiteSpace=wrap;html=1;strokeColor=none;fontStyle=1;fillColor=#0E263D;fontSize=24;" vertex="1" parent="1">
          <mxGeometry x="700" y="305" width="60" height="40" as="geometry" />
        </mxCell>
        <mxCell id="tNql6HgSYyAwf7q5l8KF-143" value="108" style="rounded=0;whiteSpace=wrap;html=1;strokeColor=none;fontStyle=1;fillColor=#0E263D;fontSize=24;" vertex="1" parent="1">
          <mxGeometry x="760" y="305" width="60" height="40" as="geometry" />
        </mxCell>
        <mxCell id="tNql6HgSYyAwf7q5l8KF-144" value="27" style="rounded=0;whiteSpace=wrap;html=1;strokeColor=none;fontStyle=1;fillColor=#0D103D;fontSize=24;" vertex="1" parent="1">
          <mxGeometry x="980" y="305" width="60" height="40" as="geometry" />
        </mxCell>
        <mxCell id="tNql6HgSYyAwf7q5l8KF-145" value="Order" style="rounded=0;whiteSpace=wrap;html=1;strokeColor=none;fontStyle=1;fillColor=#3D0917;fontSize=11;" vertex="1" parent="1">
          <mxGeometry x="1040" y="165" width="60" height="20" as="geometry" />
        </mxCell>
        <mxCell id="tNql6HgSYyAwf7q5l8KF-97" value="" style="rounded=0;whiteSpace=wrap;html=1;strokeColor=none;fontStyle=0;fillColor=#3D290F;fontSize=10;align=left;" vertex="1" parent="1">
          <mxGeometry x="840" y="185" width="60" height="40" as="geometry" />
        </mxCell>
        <mxCell id="tNql6HgSYyAwf7q5l8KF-98" value="" style="rounded=0;whiteSpace=wrap;html=1;strokeColor=none;fontStyle=0;fillColor=#3D290F;fontSize=10;align=left;" vertex="1" parent="1">
          <mxGeometry x="840" y="225" width="60" height="40" as="geometry" />
        </mxCell>
        <mxCell id="tNql6HgSYyAwf7q5l8KF-99" value="" style="rounded=0;whiteSpace=wrap;html=1;strokeColor=none;fontStyle=0;fillColor=#3D290F;fontSize=10;align=left;" vertex="1" parent="1">
          <mxGeometry x="840" y="265" width="60" height="40" as="geometry" />
        </mxCell>
        <mxCell id="tNql6HgSYyAwf7q5l8KF-100" value="" style="rounded=0;whiteSpace=wrap;html=1;strokeColor=none;fontStyle=0;fillColor=#3D290F;fontSize=10;align=left;" vertex="1" parent="1">
          <mxGeometry x="840" y="305" width="60" height="40" as="geometry" />
        </mxCell>
        <mxCell id="tNql6HgSYyAwf7q5l8KF-101" value="" style="rounded=0;whiteSpace=wrap;html=1;strokeColor=none;fontStyle=0;fillColor=#3D290F;fontSize=10;align=left;" vertex="1" parent="1">
          <mxGeometry x="840" y="345" width="60" height="40" as="geometry" />
        </mxCell>
        <mxCell id="tNql6HgSYyAwf7q5l8KF-102" value="" style="rounded=0;whiteSpace=wrap;html=1;strokeColor=none;fontStyle=0;fillColor=#3D290F;fontSize=10;align=left;" vertex="1" parent="1">
          <mxGeometry x="840" y="385" width="60" height="40" as="geometry" />
        </mxCell>
        <mxCell id="tNql6HgSYyAwf7q5l8KF-103" value="1x NOT 1-1&lt;br&gt;1x AND 2-1" style="rounded=0;whiteSpace=wrap;html=1;strokeColor=none;fontStyle=0;fillColor=#3D290F;fontSize=10;align=left;" vertex="1" parent="1">
          <mxGeometry x="840" y="425" width="60" height="40" as="geometry" />
        </mxCell>
        <mxCell id="tNql6HgSYyAwf7q5l8KF-104" value="2x NOT 1-1&lt;br&gt;1x AND 2-1" style="rounded=0;whiteSpace=wrap;html=1;strokeColor=none;fontStyle=0;fillColor=#3D290F;fontSize=10;align=left;" vertex="1" parent="1">
          <mxGeometry x="840" y="465" width="60" height="40" as="geometry" />
        </mxCell>
        <mxCell id="tNql6HgSYyAwf7q5l8KF-105" value="1x NOT 1-1" style="rounded=0;whiteSpace=wrap;html=1;strokeColor=none;fontStyle=0;fillColor=#3D290F;fontSize=10;align=left;" vertex="1" parent="1">
          <mxGeometry x="840" y="505" width="60" height="40" as="geometry" />
        </mxCell>
        <mxCell id="tNql6HgSYyAwf7q5l8KF-106" value="2x NOT 1-1&lt;br&gt;1x AND 2-1" style="rounded=0;whiteSpace=wrap;html=1;strokeColor=none;fontStyle=0;fillColor=#3D290F;fontSize=10;align=left;" vertex="1" parent="1">
          <mxGeometry x="840" y="545" width="60" height="40" as="geometry" />
        </mxCell>
        <mxCell id="tNql6HgSYyAwf7q5l8KF-147" value="5" style="rounded=0;whiteSpace=wrap;html=1;strokeColor=none;fontStyle=1;fillColor=#802828;fontSize=24;" vertex="1" parent="1">
          <mxGeometry x="1040" y="185" width="60" height="40" as="geometry" />
        </mxCell>
        <mxCell id="tNql6HgSYyAwf7q5l8KF-148" value="-11" style="rounded=0;whiteSpace=wrap;html=1;strokeColor=none;fontStyle=1;fillColor=#2E803E;fontSize=24;" vertex="1" parent="1">
          <mxGeometry x="1040" y="225" width="60" height="40" as="geometry" />
        </mxCell>
        <mxCell id="tNql6HgSYyAwf7q5l8KF-149" value="-17" style="rounded=0;whiteSpace=wrap;html=1;strokeColor=none;fontStyle=1;fillColor=#2E803E;fontSize=24;" vertex="1" parent="1">
          <mxGeometry x="1040" y="265" width="60" height="40" as="geometry" />
        </mxCell>
        <mxCell id="tNql6HgSYyAwf7q5l8KF-150" value="-34" style="rounded=0;whiteSpace=wrap;html=1;strokeColor=none;fontStyle=1;fillColor=#2E803E;fontSize=24;" vertex="1" parent="1">
          <mxGeometry x="1040" y="305" width="60" height="40" as="geometry" />
        </mxCell>
        <mxCell id="tNql6HgSYyAwf7q5l8KF-154" value="-9" style="rounded=0;whiteSpace=wrap;html=1;strokeColor=none;fontStyle=1;fillColor=#2E803E;fontSize=24;" vertex="1" parent="1">
          <mxGeometry x="1040" y="345" width="60" height="40" as="geometry" />
        </mxCell>
        <mxCell id="tNql6HgSYyAwf7q5l8KF-155" value="-2" style="rounded=0;whiteSpace=wrap;html=1;strokeColor=none;fontStyle=1;fillColor=#2E803E;fontSize=24;" vertex="1" parent="1">
          <mxGeometry x="1040" y="385" width="60" height="40" as="geometry" />
        </mxCell>
        <mxCell id="tNql6HgSYyAwf7q5l8KF-156" value="-19" style="rounded=0;whiteSpace=wrap;html=1;strokeColor=none;fontStyle=1;fillColor=#2E803E;fontSize=24;" vertex="1" parent="1">
          <mxGeometry x="1040" y="425" width="60" height="40" as="geometry" />
        </mxCell>
        <mxCell id="tNql6HgSYyAwf7q5l8KF-158" value="17" style="rounded=0;whiteSpace=wrap;html=1;strokeColor=none;fontStyle=1;fillColor=#802828;fontSize=24;" vertex="1" parent="1">
          <mxGeometry x="1040" y="465" width="60" height="40" as="geometry" />
        </mxCell>
        <mxCell id="tNql6HgSYyAwf7q5l8KF-159" value="0" style="rounded=0;whiteSpace=wrap;html=1;strokeColor=none;fontStyle=1;fillColor=#807D33;fontSize=24;" vertex="1" parent="1">
          <mxGeometry x="1040" y="585" width="60" height="40" as="geometry" />
        </mxCell>
        <mxCell id="tNql6HgSYyAwf7q5l8KF-160" value="0" style="rounded=0;whiteSpace=wrap;html=1;strokeColor=none;fontStyle=1;fillColor=#807D33;fontSize=24;" vertex="1" parent="1">
          <mxGeometry x="1040" y="545" width="60" height="40" as="geometry" />
        </mxCell>
        <mxCell id="tNql6HgSYyAwf7q5l8KF-161" value="-17" style="rounded=0;whiteSpace=wrap;html=1;strokeColor=none;fontStyle=1;fillColor=#2E803E;fontSize=24;" vertex="1" parent="1">
          <mxGeometry x="1040" y="505" width="60" height="40" as="geometry" />
        </mxCell>
      </root>
    </mxGraphModel>
  </diagram>
</mxfile>
